<svg width="62" height="62" viewBox="0 0 62 62" fill="none" xmlns="http://www.w3.org/2000/svg">
<rect x="60.5" y="60.5" width="59" height="59" rx="29.5" transform="rotate(-180 60.5 60.5)" stroke="#4E0255" stroke-width="3"/>
<mask id="mask0_372_4125" style="mask-type:alpha" maskUnits="userSpaceOnUse" x="0" y="0" width="62" height="62">
<rect x="62" y="62" width="62" height="62" transform="rotate(-180 62 62)" fill="#520657"/>
</mask>
<g mask="url(#mask0_372_4125)">
<path d="M39.5249 17.3081C39.9985 17.7817 40.2354 18.3845 40.2354 19.1164C40.2354 19.8484 39.9985 20.4512 39.5249 20.9248L29.4499 30.9998L39.5249 41.0748C39.9985 41.5484 40.2354 42.1512 40.2354 42.8831C40.2354 43.6151 39.9985 44.2178 39.5249 44.6914C39.0513 45.1651 38.4485 45.4019 37.7166 45.4019C36.9847 45.4019 36.3819 45.1651 35.9083 44.6914L24.0249 32.8081C23.7666 32.5498 23.5836 32.2699 23.476 31.9685C23.3683 31.6671 23.3145 31.3442 23.3145 30.9998C23.3145 30.6553 23.3683 30.3324 23.476 30.031C23.5836 29.7296 23.7666 29.4498 24.0249 29.1914L35.9083 17.3081C36.3819 16.8345 36.9847 16.5977 37.7166 16.5977C38.4485 16.5977 39.0513 16.8345 39.5249 17.3081Z" fill="#4E0255"/>
</g>
</svg>
