<svg width="62" height="62" viewBox="0 0 62 62" fill="none" xmlns="http://www.w3.org/2000/svg">
<rect x="1.5" y="1.5" width="59" height="59" rx="29.5" stroke="#4E0255" stroke-width="3"/>
<mask id="mask0_372_4099" style="mask-type:alpha" maskUnits="userSpaceOnUse" x="0" y="0" width="62" height="62">
<rect width="62" height="62" fill="#520657"/>
</mask>
<g mask="url(#mask0_372_4099)">
<path d="M22.4751 44.6919C22.0015 44.2183 21.7646 43.6155 21.7646 42.8836C21.7646 42.1516 22.0015 41.5488 22.4751 41.0752L32.5501 31.0002L22.4751 20.9252C22.0015 20.4516 21.7646 19.8488 21.7646 19.1169C21.7646 18.385 22.0015 17.7822 22.4751 17.3086C22.9487 16.835 23.5515 16.5981 24.2834 16.5981C25.0153 16.5981 25.6181 16.835 26.0917 17.3086L37.9751 29.1919C38.2334 29.4502 38.4164 29.7301 38.524 30.0315C38.6317 30.3329 38.6855 30.6558 38.6855 31.0002C38.6855 31.3447 38.6317 31.6676 38.524 31.969C38.4164 32.2704 38.2334 32.5502 37.9751 32.8086L26.0917 44.6919C25.6181 45.1655 25.0153 45.4023 24.2834 45.4023C23.5515 45.4023 22.9487 45.1655 22.4751 44.6919Z" fill="#4E0255"/>
</g>
</svg>
