<svg width="170" height="138" viewBox="0 0 170 138" fill="none" xmlns="http://www.w3.org/2000/svg">
<path d="M64.6611 72.1084L65.3101 74.0002L64.6611 72.1084ZM169.664 130.108L152.551 114.601L147.677 137.175L169.664 130.108ZM1.66406 1.10938L-4.85182e-05 2.21876C3.3075 7.18019 9.13963 11.1052 16.1837 14.3388C23.2703 17.5919 31.8299 20.2545 40.8758 22.5577C49.9306 24.8632 59.547 26.8267 68.7602 28.6603C77.9962 30.4985 86.8041 32.2019 94.3305 33.9985C101.901 35.8056 107.958 37.6598 111.781 39.7347C113.701 40.7768 114.838 41.761 115.387 42.6275C115.855 43.3652 115.944 44.0714 115.559 44.9938C115.115 46.0563 114.004 47.4564 111.791 49.1859C109.607 50.8923 106.507 52.7997 102.328 54.9281C93.971 59.1834 81.5256 64.2086 64.0122 70.2166L64.6611 72.1084L65.3101 74.0002C82.885 67.9711 95.5371 62.8746 104.143 58.4925C108.444 56.3021 111.792 54.2618 114.254 52.3376C116.687 50.4366 118.42 48.5232 119.25 46.5354C120.139 44.4074 119.932 42.3265 118.766 40.4863C117.681 38.775 115.847 37.3904 113.689 36.2192C109.357 33.8675 102.836 31.9163 95.2592 30.1078C87.6389 28.2888 78.7321 26.5665 69.541 24.7372C60.3271 22.9035 50.8041 20.958 41.8628 18.6814C32.9127 16.4026 24.6196 13.8101 17.8525 10.7036C11.043 7.57762 6.0205 4.03856 3.32817 -9.77516e-06L1.66406 1.10938ZM64.6611 72.1084L64.0122 70.2166C57.0834 72.5936 52.284 75.1771 49.5196 78.0502C48.1111 79.5142 47.1688 81.118 46.8109 82.8609C46.4501 84.6185 46.72 86.3423 47.4443 87.9665C48.8462 91.1103 51.9978 93.9972 55.9994 96.6486C60.0625 99.3407 65.2792 101.968 71.1874 104.492C94.7848 114.573 130.49 123.461 151.624 128.26L152.066 126.31L152.509 124.359C131.36 119.556 95.983 110.736 72.7589 100.813C66.9617 98.3366 61.9893 95.819 58.2087 93.3141C54.3665 90.7683 52.0197 88.4054 51.0975 86.3374C50.6598 85.3558 50.5613 84.4832 50.7292 83.6654C50.9001 82.8328 51.3838 81.882 52.4021 80.8235C54.4915 78.6519 58.5493 76.3195 65.3101 74.0002L64.6611 72.1084Z" fill="#4E0255"/>
</svg>
