<svg width="114" height="114" viewBox="0 0 114 114" fill="none" xmlns="http://www.w3.org/2000/svg">
<g clip-path="url(#clip0_372_4060)">
<path d="M27.0775 36.2218C24.1871 38.9532 22.498 42.7195 22.3808 46.6946C22.2637 50.6697 23.728 54.529 26.4526 57.4258L30.0908 53.996C28.2715 52.0662 27.2933 49.4927 27.3714 46.8417C27.4496 44.1907 28.5776 41.6793 30.5074 39.86C32.4372 38.0407 35.0107 37.0625 37.6617 37.1406C40.3127 37.2187 42.8241 38.3468 44.6434 40.2766L48.2815 36.8467C45.5502 33.9563 41.7838 32.2672 37.8087 32.15C33.8336 32.0329 29.9744 33.4972 27.0775 36.2218Z" fill="#AC557E"/>
<path d="M91.6542 73.7439L83.5775 81.3582C81.7521 83.0783 79.3468 84.0495 76.8388 84.0794L45.5848 84.4564C44.8573 84.4676 44.1361 84.32 43.4714 84.0239C42.8068 83.7279 42.2147 83.2905 41.7364 82.7422C41.2581 82.1939 40.9051 81.5479 40.702 80.8493C40.4989 80.1506 40.4505 79.4161 40.5603 78.6968C40.7814 77.4995 41.4167 76.4182 42.355 75.6423C43.2932 74.8665 44.4746 74.4455 45.6921 74.4532L57.7839 74.2613L35.7351 50.8735C34.8255 49.9086 34.3364 48.6219 34.3755 47.2964C34.4145 45.9709 34.9785 44.7152 35.9434 43.8055C36.9083 42.8958 38.1951 42.4068 39.5206 42.4458C40.8461 42.4849 42.1018 43.0489 43.0114 44.0138L55.0159 56.7473C54.1063 55.7824 53.6172 54.4957 53.6562 53.1702C53.6953 51.8447 54.2593 50.589 55.2242 49.6793C56.1891 48.7697 57.4758 48.2806 58.8014 48.3196C60.1269 48.3587 61.3826 48.9227 62.2922 49.8876L64.0071 51.7067C63.0975 50.7418 62.6084 49.4551 62.6475 48.1296C62.6865 46.8041 63.2505 45.5484 64.2154 44.6387C65.1803 43.7291 66.4671 43.24 67.7926 43.279C69.1181 43.3181 70.3738 43.8821 71.2834 44.847L72.9984 46.6661C72.0887 45.7012 71.5996 44.4144 71.6387 43.0889C71.6777 41.7634 72.2418 40.5077 73.2067 39.5981C74.1716 38.6884 75.4583 38.1993 76.7838 38.2384C78.1093 38.2775 79.365 38.8415 80.2747 39.8064L92.2791 52.5399C95.0081 55.4346 96.4754 59.2948 96.3582 63.2713C96.241 67.2478 94.5489 71.0149 91.6542 73.7439Z" fill="#AC557E"/>
</g>
<defs>
<clipPath id="clip0_372_4060">
<rect width="80" height="80" fill="white" transform="translate(0 54.8776) rotate(-43.3119)"/>
</clipPath>
</defs>
</svg>
