<svg width="44" height="44" viewBox="0 0 44 44" fill="none" xmlns="http://www.w3.org/2000/svg">
<path d="M17.5479 10.5C17.9776 10.5 18.4114 10.6675 18.7383 11.0029L18.8525 11.1328C19.3856 11.8006 19.3476 12.7847 18.7383 13.4072L18.7373 13.4072L12.2129 20.0654L36.0225 20.0654C36.9599 20.0657 37.7002 20.8395 37.7002 21.7695C37.7002 22.6996 36.9599 23.4734 36.0225 23.4736L12.2139 23.4736L18.7393 30.1357L18.8535 30.2647C19.3869 30.9323 19.3487 31.9143 18.7393 32.5371C18.0832 33.2072 17.0135 33.2071 16.3574 32.5371L6.98828 22.9727C6.83296 22.814 6.71165 22.6265 6.62793 22.4248L6.625 22.418L6.62598 22.417C6.54615 22.2159 6.5 21.9971 6.5 21.7695C6.50001 21.5456 6.54419 21.3274 6.62305 21.1279L6.62403 21.127C6.62489 21.1248 6.6251 21.1223 6.62598 21.1201L6.86426 21.2129L6.62793 21.1162C6.69844 20.9455 6.79914 20.8107 6.88477 20.707C6.89032 20.6969 6.89672 20.6835 6.90528 20.6699C6.92276 20.6422 6.94876 20.6057 6.98535 20.5684L16.3555 11.002L16.3564 11C16.6838 10.6679 17.1149 10.5001 17.5479 10.5ZM6.87598 20.7217C6.87521 20.723 6.8747 20.7244 6.87403 20.7256C6.87476 20.7242 6.87652 20.7224 6.87793 20.7197L6.87598 20.7217Z" fill="#C7EEFF" stroke="#C7EEFF"/>
</svg>
