<svg width="26" height="26" viewBox="0 0 26 26" fill="none" xmlns="http://www.w3.org/2000/svg">
<path d="M0 25.026V21.8978H4.30135L3.6757 21.3503C2.32012 20.1512 1.36861 18.7826 0.821167 17.2445C0.273722 15.7064 0 14.1554 0 12.5912C0 9.69759 0.866787 7.1233 2.60036 4.86835C4.33394 2.6134 6.5954 1.12096 9.38477 0.391032V3.6757C7.50781 4.35349 5.99582 5.50703 4.8488 7.13633C3.70177 8.76563 3.12826 10.5839 3.12826 12.5912C3.12826 13.7643 3.34984 14.9048 3.79301 16.0128C4.23618 17.1207 4.927 18.1439 5.86548 19.0824L6.25651 19.4734V15.6413H9.38477V25.026H0ZM15.6413 24.635V21.3503C17.5182 20.6726 19.0302 19.519 20.1772 17.8897C21.3243 16.2604 21.8978 14.4421 21.8978 12.4348C21.8978 11.2617 21.6762 10.1212 21.233 9.01329C20.7899 7.90536 20.099 6.88216 19.1606 5.94368L18.7695 5.55265V9.38477H15.6413V0H25.026V3.12826H20.7247L21.3503 3.6757C22.6277 4.95307 23.5597 6.34123 24.1462 7.84019C24.7328 9.33915 25.026 10.8707 25.026 12.4348C25.026 15.3285 24.1593 17.9027 22.4257 20.1577C20.6921 22.4126 18.4306 23.9051 15.6413 24.635Z" fill="black"/>
</svg>
