<svg width="38" height="38" viewBox="0 0 38 38" fill="none" xmlns="http://www.w3.org/2000/svg">
<path d="M29.5 15.1548C29.5 15.674 29.297 16.198 28.8926 16.5913L28.8916 16.5903C28.1466 17.3174 26.9753 17.3627 26.1777 16.7251L26.0234 16.5884L21.2393 11.8999L21.2393 31.1099C21.2393 32.2455 20.3041 33.1274 19.1992 33.1274C18.0943 33.1274 17.1592 32.2455 17.1592 31.1099L17.1592 11.8999L12.3711 16.5894L12.2168 16.7261C11.4186 17.3643 10.247 17.3188 9.50195 16.5894C8.74628 15.8493 8.69917 14.6696 9.36035 13.8745L9.50195 13.7202L17.7627 5.6294C17.9542 5.44192 18.1777 5.29824 18.415 5.19971L18.4229 5.19678L18.4297 5.19385C18.666 5.09999 18.9265 5.04541 19.1992 5.04541C19.4704 5.04545 19.7332 5.09921 19.9717 5.19483L19.7695 5.7124L19.9805 5.19873C20.1805 5.28135 20.3363 5.39291 20.4463 5.48096C20.4477 5.48187 20.4497 5.48199 20.4512 5.48291C20.4994 5.51331 20.5655 5.5596 20.6338 5.62647L28.8965 13.7192L28.8984 13.7212C29.2966 14.1137 29.4999 14.6331 29.5 15.1548ZM20.3936 5.44971C20.3792 5.44121 20.3682 5.43476 20.3633 5.43213L20.3623 5.43213C20.3656 5.43382 20.3784 5.442 20.3975 5.45264C20.396 5.45179 20.3949 5.4505 20.3936 5.44971Z" fill="#91CDE7" stroke="#91CDE7" stroke-width="2"/>
</svg>
