<svg width="37" height="30" viewBox="0 0 37 30" fill="none" xmlns="http://www.w3.org/2000/svg">
<path d="M15.1708 22L25.3917 15.4458C25.6667 15.2625 25.8042 15.0028 25.8042 14.6667C25.8042 14.3306 25.6667 14.0708 25.3917 13.8875L15.1708 7.33333C14.8653 7.11944 14.5521 7.10417 14.2313 7.2875C13.9104 7.47083 13.75 7.74583 13.75 8.1125V21.2208C13.75 21.5875 13.9104 21.8625 14.2313 22.0458C14.5521 22.2292 14.8653 22.2139 15.1708 22ZM3.66667 29.3333C2.65833 29.3333 1.79514 28.9743 1.07708 28.2563C0.359028 27.5382 0 26.675 0 25.6667V3.66667C0 2.65833 0.359028 1.79514 1.07708 1.07708C1.79514 0.359028 2.65833 0 3.66667 0H33C34.0083 0 34.8715 0.359028 35.5896 1.07708C36.3076 1.79514 36.6667 2.65833 36.6667 3.66667V25.6667C36.6667 26.675 36.3076 27.5382 35.5896 28.2563C34.8715 28.9743 34.0083 29.3333 33 29.3333H3.66667ZM3.66667 25.6667H33V3.66667H3.66667V25.6667Z" fill="#C7EEFF"/>
</svg>
