<svg width="23" height="31" viewBox="0 0 23 31" fill="none" xmlns="http://www.w3.org/2000/svg">
<path d="M1 18.9727C1 18.4535 1.20304 17.9295 1.60742 17.5361L1.6084 17.5371C2.35343 16.81 3.52471 16.7647 4.32227 17.4023L4.47656 17.5391L9.26074 22.2275L9.26074 3.01758C9.26074 1.88193 10.1959 1.00006 11.3008 1C12.4057 1 13.3408 1.8819 13.3408 3.01758L13.3408 22.2275L18.1289 17.5381L18.2832 17.4014C19.0814 16.7632 20.253 16.8086 20.998 17.5381C21.7537 18.2781 21.8008 19.4579 21.1396 20.2529L20.998 20.4072L12.7373 28.498C12.5458 28.6855 12.3223 28.8292 12.085 28.9277L12.0771 28.9307L12.0703 28.9336C11.834 29.0274 11.5735 29.082 11.3008 29.082C11.0296 29.082 10.7668 29.0282 10.5283 28.9326L10.7305 28.415L10.5195 28.9287C10.3195 28.8461 10.1637 28.7345 10.0537 28.6465C10.0523 28.6456 10.0503 28.6455 10.0488 28.6445C10.0006 28.6141 9.93453 28.5678 9.86621 28.501L1.60352 20.4082L1.60156 20.4063C1.20337 20.0138 1.00009 19.4943 1 18.9727ZM10.1064 28.6777C10.1208 28.6862 10.1318 28.6927 10.1367 28.6953L10.1377 28.6953C10.1344 28.6936 10.1216 28.6854 10.1025 28.6748C10.104 28.6757 10.1051 28.6769 10.1064 28.6777Z" fill="#C7EEFF" stroke="#C7EEFF" stroke-width="2"/>
</svg>
