<svg width="31" height="23" viewBox="0 0 31 23" fill="none" xmlns="http://www.w3.org/2000/svg">
<path d="M18.9727 21.6025C18.4535 21.6025 17.9295 21.3995 17.5361 20.9951L17.5371 20.9941C16.81 20.2491 16.7647 19.0778 17.4023 18.2803L17.5391 18.126L22.2275 13.3418L3.01758 13.3418C1.88193 13.3418 1.00006 12.4066 0.999999 11.3018C0.999999 10.1968 1.8819 9.26172 3.01758 9.26172L22.2275 9.26172L17.5381 4.47363L17.4014 4.31934C16.7632 3.52113 16.8086 2.34952 17.5381 1.60449C18.2781 0.848818 19.4579 0.801707 20.2529 1.46289L20.4072 1.60449L28.498 9.86523C28.6855 10.0567 28.8292 10.2803 28.9277 10.5176L28.9307 10.5254L28.9336 10.5322C29.0274 10.7685 29.082 11.029 29.082 11.3018C29.082 11.5729 29.0282 11.8357 28.9326 12.0742L28.415 11.8721L28.9287 12.083C28.8461 12.283 28.7345 12.4389 28.6465 12.5488C28.6456 12.5503 28.6455 12.5522 28.6445 12.5537C28.6141 12.602 28.5678 12.668 28.501 12.7363L20.4082 20.999L20.4063 21.001C20.0138 21.3992 19.4943 21.6025 18.9727 21.6025ZM28.6777 12.4961C28.6862 12.4817 28.6927 12.4708 28.6953 12.4658L28.6953 12.4648C28.6936 12.4681 28.6854 12.481 28.6748 12.5C28.6757 12.4986 28.6769 12.4974 28.6777 12.4961Z" fill="#C7EEFF" stroke="#C7EEFF" stroke-width="2"/>
</svg>
