<svg width="170" height="138" viewBox="0 0 170 138" fill="none" xmlns="http://www.w3.org/2000/svg">
<path d="M105.003 72.1084L104.354 74.0002L105.003 72.1084ZM0.000488281 130.108L17.1135 114.601L21.9868 137.175L0.000488281 130.108ZM168 1.10938L169.664 2.21876C166.357 7.18019 160.524 11.1052 153.48 14.3388C146.394 17.5919 137.834 20.2545 128.788 22.5577C119.733 24.8632 110.117 26.8267 100.904 28.6603C91.6679 30.4985 82.86 32.2019 75.3336 33.9985C67.7632 35.8056 61.7056 37.6598 57.8831 39.7347C55.9632 40.7768 54.826 41.761 54.2769 42.6275C53.8093 43.3652 53.72 44.0714 54.1053 44.9938C54.5491 46.0563 55.66 47.4564 57.8731 49.1859C60.0566 50.8923 63.1567 52.7997 67.3363 54.9281C75.6931 59.1834 88.1385 64.2086 105.652 70.2166L105.003 72.1084L104.354 74.0002C86.7791 67.9711 74.127 62.8746 65.5212 58.4925C61.2196 56.3021 57.8722 54.2618 55.41 52.3376C52.9774 50.4366 51.2445 48.5232 50.4143 46.5354C49.5255 44.4074 49.732 42.3265 50.8982 40.4863C51.9828 38.775 53.8172 37.3904 55.9748 36.2192C60.3073 33.8675 66.8285 31.9163 74.4048 30.1078C82.0252 28.2888 90.932 26.5665 100.123 24.7372C109.337 22.9035 118.86 20.958 127.801 18.6814C136.751 16.4026 145.044 13.8101 151.812 10.7036C158.621 7.57762 163.644 4.03856 166.336 -9.77516e-06L168 1.10938ZM105.003 72.1084L105.652 70.2166C112.581 72.5936 117.38 75.1771 120.144 78.0502C121.553 79.5142 122.495 81.118 122.853 82.8609C123.214 84.6185 122.944 86.3423 122.22 87.9665C120.818 91.1103 117.666 93.9972 113.665 96.6486C109.602 99.3407 104.385 101.968 98.4767 104.492C74.8793 114.573 39.1741 123.461 18.0405 128.26L17.5976 126.31L17.1547 124.359C38.3044 119.556 73.6811 110.736 96.9052 100.813C102.702 98.3366 107.675 95.819 111.455 93.3141C115.298 90.7683 117.644 88.4054 118.567 86.3374C119.004 85.3558 119.103 84.4832 118.935 83.6654C118.764 82.8328 118.28 81.882 117.262 80.8235C115.173 78.6519 111.115 76.3195 104.354 74.0002L105.003 72.1084Z" fill="#4E0255"/>
</svg>
