<svg width="62" height="47" viewBox="0 0 62 47" fill="none" xmlns="http://www.w3.org/2000/svg">
<path d="M57.2812 35.5079L49.2045 43.1222C47.379 44.8423 44.9738 45.8136 42.4658 45.8434L11.2117 46.2205C10.4842 46.2316 9.76303 46.084 9.0984 45.788C8.43377 45.4919 7.84169 45.0545 7.36339 44.5062C6.88509 43.9579 6.53208 43.3119 6.32896 42.6133C6.12584 41.9146 6.07749 41.1801 6.18728 40.4608C6.40832 39.2635 7.04363 38.1822 7.98191 37.4063C8.92018 36.6305 10.1016 36.2095 11.3191 36.2172L23.4109 36.0254L1.36209 12.6375C0.45244 11.6726 -0.0366514 10.3859 0.00241191 9.06037C0.0414767 7.73486 0.605494 6.47916 1.57039 5.56951C2.53529 4.65986 3.82202 4.17077 5.14753 4.20983C6.47304 4.2489 7.72874 4.81292 8.63839 5.77781L20.6429 18.5113C19.7332 17.5464 19.2441 16.2597 19.2832 14.9342C19.3222 13.6087 19.8863 12.353 20.8512 11.4433C21.8161 10.5337 23.1028 10.0446 24.4283 10.0837C25.7538 10.1227 27.0095 10.6867 27.9192 11.6516L29.6341 13.4707C28.7244 12.5058 28.2353 11.2191 28.2744 9.89358C28.3135 8.56807 28.8775 7.31237 29.8424 6.40271C30.8073 5.49306 32.094 5.00397 33.4195 5.04304C34.745 5.0821 36.0007 5.64612 36.9104 6.61101L38.6253 8.43009C37.7157 7.46519 37.2266 6.17846 37.2656 4.85295C37.3047 3.52744 37.8687 2.27174 38.8336 1.36209C39.7985 0.452439 41.0852 -0.0366505 42.4108 0.00241343C43.7363 0.041476 44.992 0.605496 45.9016 1.57039L57.9061 14.3039C60.635 17.1986 62.1023 21.0588 61.9851 25.0353C61.8679 29.0119 60.1759 32.779 57.2812 35.5079Z" fill="#AC557E"/>
</svg>
