<svg width="62" height="47" viewBox="0 0 62 47" fill="none" xmlns="http://www.w3.org/2000/svg">
<path d="M4.71002 35.5079L12.7867 43.1222C14.6122 44.8423 17.0174 45.8136 19.5254 45.8434L50.7795 46.2205C51.507 46.2316 52.2282 46.084 52.8928 45.788C53.5574 45.4919 54.1495 45.0545 54.6278 44.5062C55.1061 43.9579 55.4591 43.3119 55.6623 42.6133C55.8654 41.9146 55.9137 41.1801 55.8039 40.4608C55.5829 39.2635 54.9476 38.1822 54.0093 37.4063C53.071 36.6305 51.8896 36.2095 50.6722 36.2172L38.5803 36.0254L60.6291 12.6375C61.5388 11.6726 62.0279 10.3859 61.9888 9.06037C61.9497 7.73486 61.3857 6.47916 60.4208 5.56951C59.4559 4.65986 58.1692 4.17077 56.8437 4.20983C55.5182 4.2489 54.2625 4.81292 53.3528 5.77781L41.3483 18.5113C42.258 17.5464 42.7471 16.2597 42.708 14.9342C42.669 13.6087 42.1049 12.353 41.14 11.4433C40.1751 10.5337 38.8884 10.0446 37.5629 10.0837C36.2374 10.1227 34.9817 10.6867 34.072 11.6516L32.3571 13.4707C33.2668 12.5058 33.7559 11.2191 33.7168 9.89358C33.6777 8.56807 33.1137 7.31237 32.1488 6.40271C31.1839 5.49306 29.8972 5.00397 28.5717 5.04304C27.2462 5.0821 25.9905 5.64612 25.0808 6.61101L23.3659 8.43009C24.2755 7.46519 24.7646 6.17846 24.7256 4.85295C24.6865 3.52744 24.1225 2.27174 23.1576 1.36209C22.1927 0.452439 20.906 -0.0366505 19.5805 0.00241343C18.2549 0.041476 16.9993 0.605496 16.0896 1.57039L4.08512 14.3039C1.35617 17.1986 -0.111113 21.0588 0.00607818 25.0353C0.12327 29.0119 1.81533 32.779 4.71002 35.5079Z" fill="#AC557E"/>
</svg>
